<svg width="20" height="20" viewBox="0 0 20 20" fill="none" xmlns="http://www.w3.org/2000/svg">
<path fill-rule="evenodd" clip-rule="evenodd" d="M7.08489 18.9199L16.8476 6.29493C17.3781 5.61411 17.5668 4.827 17.3899 4.02554C17.2367 3.29695 16.7886 2.60419 16.1166 2.07864L14.4777 0.776732C13.051 -0.357957 11.2823 -0.238512 10.2683 1.0634L9.17178 2.48594C9.03033 2.66391 9.06567 2.92668 9.24256 3.07001C9.24256 3.07001 12.0133 5.29162 12.0723 5.3394C12.261 5.51857 12.4024 5.75744 12.4379 6.0441C12.4968 6.60548 12.1077 7.13102 11.53 7.20269C11.2588 7.23852 10.9993 7.15491 10.8108 6.99963L7.89844 4.68247C7.75695 4.57617 7.54472 4.59887 7.42681 4.74219L0.505709 13.7003C0.0576649 14.2617 -0.0956131 14.9902 0.0576647 15.695L0.941965 19.529C0.98912 19.7321 1.16599 19.8754 1.37821 19.8754L5.26913 19.8277C5.97657 19.8157 6.63684 19.4932 7.08489 18.9199ZM12.533 17.7259H18.8776C19.4966 17.7259 20 18.2359 20 18.8629C20 19.4912 19.4966 20 18.8776 20H12.533C11.914 20 11.4106 19.4912 11.4106 18.8629C11.4106 18.2359 11.914 17.7259 12.533 17.7259Z" fill="#C38CEE"/>
</svg>
