<svg width="30" height="30" viewBox="0 0 30 30" fill="none" xmlns="http://www.w3.org/2000/svg">
<path d="M14.9985 29.9883C23.2755 29.9883 29.9853 23.2785 29.9853 15.0015C29.9853 6.72447 23.2755 0.0146484 14.9985 0.0146484C6.72154 0.0146484 0.0117188 6.72447 0.0117188 15.0015C0.0117188 23.2785 6.72154 29.9883 14.9985 29.9883Z" fill="#6B15CA"/>
<path d="M30 15C30 23.2839 23.2839 30 15 30V0C23.2839 0 30 6.71613 30 15Z" fill="#4B127E"/>
<path d="M26.2496 7.50073C28.3209 7.50073 30 5.82164 30 3.75037C30 1.6791 28.3209 0 26.2496 0C24.1784 0 22.4993 1.6791 22.4993 3.75037C22.4993 5.82164 24.1784 7.50073 26.2496 7.50073Z" fill="#EE34F7"/>
<path d="M23 20H14V18.183C14 15.8728 15.7455 14 17.8986 14H19.1014C21.2545 14 22.9999 15.8728 22.9999 18.183V20H23Z" fill="#AD50F7"/>
<path d="M18.5 14C19.8807 14 21 12.8807 21 11.5C21 10.1193 19.8807 9 18.5 9C17.1193 9 16 10.1193 16 11.5C16 12.8807 17.1193 14 18.5 14Z" fill="#AD50F7"/>
<path d="M16.9687 21.0792H6.16406V19.0463C6.16406 16.4614 8.25952 14.366 10.8443 14.366H12.2884C14.8732 14.366 16.9686 16.4614 16.9686 19.0463V21.0792H16.9687Z" fill="white"/>
<path d="M16.9688 19.0461V21.0795H15V15.231C16.1918 16.0796 16.9688 17.4718 16.9688 19.0461Z" fill="#FFF5CB"/>
<path d="M11.5662 13.6911C13.1592 13.6911 14.4506 12.3997 14.4506 10.8067C14.4506 9.21373 13.1592 7.92236 11.5662 7.92236C9.97326 7.92236 8.68188 9.21373 8.68188 10.8067C8.68188 12.3997 9.97326 13.6911 11.5662 13.6911Z" fill="white"/>
</svg>
