<svg width="122" height="244" viewBox="0 0 122 244" fill="none" xmlns="http://www.w3.org/2000/svg">
<path d="M121.792 57.925H120.452V21.235C120.452 18.4463 119.902 15.6849 118.832 13.1085C117.763 10.5321 116.195 8.1911 114.219 6.21923C112.243 4.24736 109.897 2.68322 107.316 1.61612C104.734 0.549024 101.967 -0.000135098 99.1723 2.49295e-08H21.2791C18.4847 -4.50159e-05 15.7176 0.549193 13.1359 1.61635C10.5542 2.68351 8.20834 4.2477 6.23239 6.21959C4.25643 8.19149 2.68904 10.5325 1.61968 13.1089C0.550321 15.6853 -4.51308e-05 18.4467 2.7757e-09 21.2354V222.519C2.77572e-09 228.15 2.24185 233.552 6.23239 237.534C10.2229 241.516 15.6352 243.754 21.2787 243.754H99.1723C104.816 243.754 110.228 241.516 114.219 237.534C118.209 233.552 120.451 228.15 120.451 222.519V84.0415H121.791L121.792 57.925Z" fill="#6B15CA"/>
<path d="M116.112 19.8123V223.94C116.112 228.21 114.412 232.305 111.387 235.324C108.361 238.344 104.258 240.041 99.9796 240.043H20.4872C16.2067 240.043 12.1013 238.347 9.07386 235.327C6.04644 232.308 4.34496 228.211 4.34369 223.94V19.8123C4.34496 15.5408 6.04636 11.4446 9.07364 8.42486C12.1009 5.40507 16.2062 3.70893 20.4865 3.70947H30.1294C29.6559 4.87145 29.4757 6.13171 29.6046 7.37947C29.7335 8.62724 30.1675 9.8243 30.8686 10.8655C31.5696 11.9066 32.5162 12.76 33.6252 13.3505C34.7341 13.9411 35.9714 14.2508 37.2284 14.2524H82.5483C83.8052 14.2508 85.0426 13.9411 86.1515 13.3505C87.2604 12.76 88.207 11.9066 88.9081 10.8655C89.6091 9.8243 90.0432 8.62724 90.1721 7.37947C90.301 6.13171 90.1207 4.87145 89.6473 3.70947H99.9764C104.255 3.7102 108.359 5.40655 111.384 8.42559C114.41 11.4446 116.111 15.5392 116.112 19.8092V19.8123Z" fill="white"/>
<path d="M61.0805 101.476C52.03 101.479 43.3488 97.8949 36.9464 91.511C30.544 85.1272 26.9449 76.4668 26.9407 67.4348V67.4047C26.9407 67.3333 26.9407 67.2582 26.9449 67.1869C27.048 48.5293 42.3632 33.3357 61.0805 33.3357C65.5638 33.3354 70.0033 34.2164 74.1454 35.9284C78.2875 37.6403 82.0512 40.1496 85.2215 43.3131C88.3919 46.4766 90.9068 50.2323 92.6227 54.3657C94.3386 58.4991 95.222 62.9294 95.2222 67.4035C95.2225 71.8776 94.3396 76.3079 92.6242 80.4415C90.9087 84.5751 88.3942 88.3311 85.2242 91.4949C82.0542 94.6587 78.2908 97.1685 74.1489 98.8809C70.007 100.593 65.5676 101.475 61.0843 101.475H61.0805V101.476ZM61.0805 34.0525C52.257 34.0722 43.7976 37.5658 37.5405 43.7744C31.2835 49.9829 27.7342 58.4047 27.6638 67.2099C27.6601 67.286 27.6601 67.347 27.6601 67.405C27.6592 74.0025 29.6189 80.452 33.2912 85.938C36.9635 91.424 42.1835 95.7001 48.2911 98.2254C54.3987 100.751 61.1195 101.412 67.6036 100.125C74.0878 98.8388 80.044 95.6622 84.719 90.9974C89.394 86.3326 92.5779 80.389 93.868 73.9184C95.1581 67.4478 94.4965 60.7407 91.9668 54.6453C89.4371 48.5499 85.1529 43.3401 79.6561 39.6746C74.1593 36.0091 67.6967 34.0526 61.0857 34.0525H61.0805Z" fill="#E6E6E6"/>
<path d="M46.1495 67.1154C50.1965 67.1154 53.4773 63.8413 53.4773 59.8026C53.4773 55.7638 50.1965 52.4897 46.1495 52.4897C42.1024 52.4897 38.8216 55.7638 38.8216 59.8026C38.8216 63.8413 42.1024 67.1154 46.1495 67.1154Z" fill="#3F3D56"/>
<path d="M69.1284 82.3365H33.1799C33.1348 82.337 33.0898 82.3335 33.0455 82.3258L50.0478 52.9381C50.1516 52.755 50.3021 52.6027 50.4841 52.4968C50.6662 52.3908 50.8731 52.335 51.0838 52.335C51.2946 52.335 51.5015 52.3908 51.6835 52.4968C51.8656 52.6027 52.0161 52.755 52.1199 52.9381L63.5299 72.6589L64.0764 73.6024L69.1284 82.3365Z" fill="#6B15CA"/>
<path d="M89.1428 82.3368H58.0511L64.0757 73.6034L64.5091 72.9741L72.36 61.593C72.4988 61.4188 72.6728 61.2758 72.8707 61.1732C73.0686 61.0706 73.2859 61.0107 73.5084 60.9974C73.731 60.9842 73.9539 61.0178 74.1626 61.0962C74.3713 61.1746 74.5611 61.2959 74.7197 61.4523C74.7604 61.4968 74.7981 61.5437 74.8328 61.593L89.1428 82.3368Z" fill="#6B15CA"/>
<path d="M96.3834 137.297H25.7452C25.3984 137.296 25.0659 137.159 24.8206 136.914C24.5754 136.669 24.4375 136.337 24.4371 135.991V118.505C24.4376 118.159 24.5755 117.827 24.8207 117.583C25.066 117.338 25.3984 117.2 25.7452 117.2H96.3834C96.7301 117.2 97.0626 117.338 97.3078 117.583C97.553 117.827 97.6909 118.159 97.6914 118.505V135.992C97.6909 136.338 97.553 136.669 97.3078 136.914C97.0626 137.159 96.7301 137.297 96.3834 137.297V137.297ZM25.7452 117.722C25.537 117.722 25.3375 117.805 25.1903 117.952C25.0431 118.098 24.9604 118.298 24.9602 118.505V135.992C24.9604 136.199 25.0431 136.399 25.1903 136.545C25.3375 136.692 25.537 136.775 25.7452 136.775H96.3834C96.5915 136.775 96.7911 136.692 96.9382 136.545C97.0854 136.399 97.1681 136.199 97.1683 135.992V118.505C97.1681 118.298 97.0854 118.098 96.9382 117.952C96.7911 117.805 96.5915 117.722 96.3834 117.722H25.7452Z" fill="#E6E6E6"/>
<path d="M34.9017 132.731C37.936 132.731 40.3957 130.276 40.3957 127.248C40.3957 124.22 37.936 121.766 34.9017 121.766C31.8675 121.766 29.4077 124.22 29.4077 127.248C29.4077 130.276 31.8675 132.731 34.9017 132.731Z" fill="#2B0753"/>
<path d="M47.5906 123.593C47.3477 123.593 47.1148 123.689 46.943 123.86C46.7713 124.032 46.6748 124.264 46.6748 124.506C46.6748 124.749 46.7713 124.981 46.943 125.153C47.1148 125.324 47.3477 125.42 47.5906 125.42H90.758C90.8799 125.425 91.0015 125.405 91.1157 125.362C91.2298 125.319 91.3343 125.254 91.4228 125.171C91.5114 125.087 91.5823 124.986 91.6315 124.875C91.6806 124.764 91.7069 124.644 91.7089 124.522C91.7109 124.4 91.6885 124.279 91.6431 124.166C91.5976 124.053 91.53 123.951 91.4442 123.864C91.3584 123.778 91.2562 123.709 91.1435 123.662C91.0308 123.616 90.9099 123.592 90.788 123.593H47.5906V123.593Z" fill="#E6E6E6"/>
<path d="M47.5906 129.075C47.3477 129.075 47.1148 129.172 46.943 129.343C46.7713 129.514 46.6748 129.747 46.6748 129.989C46.6748 130.232 46.7713 130.464 46.943 130.635C47.1148 130.807 47.3477 130.903 47.5906 130.903H90.758C90.8799 130.908 91.0015 130.888 91.1157 130.845C91.2298 130.802 91.3343 130.737 91.4228 130.654C91.5114 130.57 91.5823 130.469 91.6315 130.358C91.6806 130.246 91.7069 130.126 91.7089 130.005C91.7109 129.883 91.6885 129.762 91.6431 129.649C91.5976 129.536 91.53 129.433 91.4442 129.347C91.3584 129.26 91.2562 129.192 91.1435 129.145C91.0308 129.099 90.9099 129.075 90.788 129.076H47.5906V129.075Z" fill="#E6E6E6"/>
<path d="M96.3834 166.538H25.7452C25.3984 166.538 25.0659 166.4 24.8206 166.155C24.5754 165.911 24.4375 165.579 24.4371 165.233V147.747C24.4376 147.401 24.5755 147.069 24.8207 146.824C25.066 146.58 25.3984 146.442 25.7452 146.441H96.3834C96.7301 146.442 97.0626 146.58 97.3078 146.824C97.553 147.069 97.6909 147.401 97.6914 147.747V165.233C97.6909 165.579 97.5529 165.911 97.3077 166.155C97.0625 166.4 96.7301 166.538 96.3834 166.538V166.538ZM25.7452 146.963C25.537 146.964 25.3375 147.046 25.1903 147.193C25.0431 147.34 24.9604 147.539 24.9602 147.747V165.233C24.9604 165.441 25.0431 165.64 25.1903 165.787C25.3375 165.934 25.537 166.016 25.7452 166.016H96.3834C96.5915 166.016 96.7911 165.934 96.9382 165.787C97.0854 165.64 97.1681 165.441 97.1683 165.233V147.747C97.1681 147.539 97.0854 147.34 96.9382 147.193C96.7911 147.046 96.5915 146.964 96.3834 146.963H25.7452Z" fill="#E6E6E6"/>
<path d="M34.9017 161.972C37.936 161.972 40.3957 159.517 40.3957 156.489C40.3957 153.461 37.936 151.007 34.9017 151.007C31.8675 151.007 29.4077 153.461 29.4077 156.489C29.4077 159.517 31.8675 161.972 34.9017 161.972Z" fill="#2B0753"/>
<path d="M47.5906 152.833C47.3477 152.833 47.1148 152.93 46.943 153.101C46.7713 153.272 46.6748 153.505 46.6748 153.747C46.6748 153.989 46.7713 154.222 46.943 154.393C47.1148 154.565 47.3477 154.661 47.5906 154.661H90.758C90.9974 154.66 91.2268 154.565 91.397 154.397C91.5672 154.229 91.6647 154.001 91.6686 153.762C91.6725 153.523 91.5825 153.292 91.4179 153.119C91.2533 152.945 91.0272 152.843 90.7879 152.834H47.5906V152.833Z" fill="#E6E6E6"/>
<path d="M47.5906 158.317C47.3477 158.317 47.1148 158.414 46.943 158.585C46.7713 158.756 46.6748 158.989 46.6748 159.231C46.6748 159.474 46.7713 159.706 46.943 159.877C47.1148 160.049 47.3477 160.145 47.5906 160.145H90.758C90.9974 160.144 91.2268 160.049 91.397 159.881C91.5672 159.713 91.6647 159.485 91.6686 159.246C91.6725 159.007 91.5825 158.776 91.4179 158.603C91.2533 158.429 91.0272 158.327 90.7879 158.318H47.5906V158.317Z" fill="#E6E6E6"/>
<path d="M96.3834 195.78H25.7452C25.3984 195.779 25.0659 195.642 24.8206 195.397C24.5754 195.152 24.4375 194.82 24.4371 194.474V176.988C24.4376 176.642 24.5755 176.31 24.8207 176.066C25.066 175.821 25.3984 175.683 25.7452 175.683H96.3834C96.7301 175.683 97.0626 175.821 97.3078 176.066C97.553 176.31 97.6909 176.642 97.6914 176.988V194.475C97.6909 194.821 97.553 195.152 97.3078 195.397C97.0626 195.642 96.7301 195.779 96.3834 195.78V195.78ZM25.7452 176.205C25.537 176.205 25.3375 176.288 25.1903 176.435C25.0431 176.581 24.9604 176.781 24.9602 176.988V194.475C24.9604 194.682 25.0431 194.881 25.1903 195.028C25.3375 195.175 25.537 195.258 25.7452 195.258H96.3834C96.5915 195.258 96.7911 195.175 96.9382 195.028C97.0854 194.881 97.1681 194.682 97.1683 194.475V176.988C97.1681 176.781 97.0854 176.581 96.9382 176.435C96.7911 176.288 96.5915 176.205 96.3834 176.205H25.7452Z" fill="#E6E6E6"/>
<path d="M34.9017 191.214C37.936 191.214 40.3957 188.759 40.3957 185.731C40.3957 182.703 37.936 180.248 34.9017 180.248C31.8675 180.248 29.4077 182.703 29.4077 185.731C29.4077 188.759 31.8675 191.214 34.9017 191.214Z" fill="#2B0753"/>
<path d="M47.5906 182.076C47.3477 182.076 47.1148 182.172 46.943 182.343C46.7713 182.515 46.6748 182.747 46.6748 182.99C46.6748 183.232 46.7713 183.464 46.943 183.636C47.1148 183.807 47.3477 183.903 47.5906 183.903H90.758C90.8799 183.908 91.0015 183.888 91.1157 183.845C91.2298 183.803 91.3343 183.737 91.4228 183.654C91.5114 183.57 91.5823 183.47 91.6315 183.358C91.6806 183.247 91.7069 183.127 91.7089 183.005C91.7109 182.883 91.6885 182.762 91.6431 182.649C91.5976 182.536 91.53 182.434 91.4442 182.347C91.3584 182.261 91.2562 182.192 91.1435 182.146C91.0308 182.099 90.9099 182.075 90.788 182.076H47.5906V182.076Z" fill="#E6E6E6"/>
<path d="M47.5906 187.559C47.3477 187.559 47.1148 187.655 46.943 187.826C46.7713 187.998 46.6748 188.23 46.6748 188.472C46.6748 188.715 46.7713 188.947 46.943 189.119C47.1148 189.29 47.3477 189.386 47.5906 189.386H90.758C90.8799 189.391 91.0015 189.371 91.1157 189.328C91.2298 189.286 91.3343 189.22 91.4228 189.137C91.5114 189.053 91.5823 188.952 91.6315 188.841C91.6806 188.73 91.7069 188.61 91.7089 188.488C91.7109 188.366 91.6885 188.245 91.6431 188.132C91.5976 188.019 91.53 187.917 91.4442 187.83C91.3584 187.744 91.2562 187.675 91.1435 187.628C91.0308 187.582 90.9099 187.558 90.788 187.559H47.5906V187.559Z" fill="#E6E6E6"/>
</svg>
